<svg xmlns="http://www.w3.org/2000/svg" viewBox="0 0 200 300">
  <!-- Wings -->
  <ellipse cx="50" cy="150" rx="40" ry="60" fill="#a7f3d0" opacity="0.6"/>
  <ellipse cx="150" cy="150" rx="40" ry="60" fill="#a7f3d0" opacity="0.6"/>
  <!-- Body -->
  <ellipse cx="100" cy="220" rx="40" ry="50" fill="#fce7f3"/>
  <!-- Dress -->
  <path d="M60 200 Q100 180 140 200 L150 270 Q100 280 50 270 Z" fill="#86efac"/>
  <!-- Head -->
  <circle cx="100" cy="120" r="50" fill="#fef3c7"/>
  <!-- Hair -->
  <path d="M50 100 Q30 60 50 40 Q100 20 150 40 Q170 60 150 100 Q140 80 100 70 Q60 80 50 100" fill="#84cc16"/>
  <!-- Eyes -->
  <ellipse cx="80" cy="115" rx="12" ry="16" fill="white"/>
  <ellipse cx="120" cy="115" rx="12" ry="16" fill="white"/>
  <circle cx="82" cy="118" r="8" fill="#166534"/>
  <circle cx="122" cy="118" r="8" fill="#166534"/>
  <circle cx="85" cy="114" r="3" fill="white"/>
  <circle cx="125" cy="114" r="3" fill="white"/>
  <!-- Blush -->
  <ellipse cx="65" cy="130" rx="8" ry="5" fill="#fda4af" opacity="0.5"/>
  <ellipse cx="135" cy="130" rx="8" ry="5" fill="#fda4af" opacity="0.5"/>
  <!-- Smile -->
  <path d="M90 140 Q100 150 110 140" stroke="#f472b6" fill="none" stroke-width="3" stroke-linecap="round"/>
  <!-- Crown of flowers -->
  <circle cx="70" cy="75" r="8" fill="#f472b6"/>
  <circle cx="100" cy="65" r="8" fill="#fbbf24"/>
  <circle cx="130" cy="75" r="8" fill="#c084fc"/>
</svg>
